<mxfile host="app.diagrams.net" modified="2021-05-11T12:06:25.412Z" agent="5.0 (Macintosh; Intel Mac OS X 10_15_7) AppleWebKit/537.36 (KHTML, like Gecko) Chrome/90.0.4430.93 Safari/537.36" etag="tYuFglsxfKy98p0aPjgQ" version="14.6.11" type="github">
  <diagram id="lxeVQCaI57bYIXUgFcgn" name="Page-1">
    <mxGraphModel dx="1287" dy="754" grid="1" gridSize="10" guides="1" tooltips="1" connect="1" arrows="1" fold="1" page="1" pageScale="1" pageWidth="1654" pageHeight="1169" math="0" shadow="0">
      <root>
        <mxCell id="0" />
        <mxCell id="1" parent="0" />
        <mxCell id="OyorC9etm5J3G98tdq_z-1" value="User" style="shape=umlActor;verticalLabelPosition=bottom;verticalAlign=top;html=1;outlineConnect=0;" vertex="1" parent="1">
          <mxGeometry x="250" y="320" width="30" height="60" as="geometry" />
        </mxCell>
        <mxCell id="OyorC9etm5J3G98tdq_z-4" value="Attacker" style="shape=umlActor;verticalLabelPosition=bottom;verticalAlign=top;html=1;outlineConnect=0;fillColor=#000000;" vertex="1" parent="1">
          <mxGeometry x="870" y="320" width="30" height="60" as="geometry" />
        </mxCell>
        <mxCell id="OyorC9etm5J3G98tdq_z-5" value="&lt;font color=&quot;#fbfff2&quot;&gt;SQL-injection&lt;/font&gt;" style="ellipse;whiteSpace=wrap;html=1;fillColor=#000000;" vertex="1" parent="1">
          <mxGeometry x="440" y="180" width="135" height="90" as="geometry" />
        </mxCell>
        <mxCell id="OyorC9etm5J3G98tdq_z-6" value="&lt;font color=&quot;#fbfff2&quot;&gt;Identity Theft&lt;br&gt;&lt;/font&gt;" style="ellipse;whiteSpace=wrap;html=1;fillColor=#000000;" vertex="1" parent="1">
          <mxGeometry x="540" y="290" width="135" height="90" as="geometry" />
        </mxCell>
        <mxCell id="OyorC9etm5J3G98tdq_z-7" value="&lt;font color=&quot;#fbfff2&quot;&gt;Gain access&lt;/font&gt;" style="ellipse;whiteSpace=wrap;html=1;fillColor=#000000;" vertex="1" parent="1">
          <mxGeometry x="440" y="420" width="135" height="90" as="geometry" />
        </mxCell>
        <mxCell id="OyorC9etm5J3G98tdq_z-9" value="&lt;font color=&quot;#fbfff2&quot;&gt;Information Tampering&lt;br&gt;&lt;/font&gt;" style="ellipse;whiteSpace=wrap;html=1;fillColor=#000000;" vertex="1" parent="1">
          <mxGeometry x="590" y="540" width="135" height="90" as="geometry" />
        </mxCell>
      </root>
    </mxGraphModel>
  </diagram>
</mxfile>
